<?xml version="1.0" encoding="utf-8"?>
<!-- Generator: Adobe Illustrator 28.4.1, SVG Export Plug-In . SVG Version: 6.00 Build 0)  -->
<svg version="1.1" id="Layer_1" xmlns="http://www.w3.org/2000/svg" xmlns:xlink="http://www.w3.org/1999/xlink" x="0px" y="0px"
	 viewBox="0 0 542 138" style="enable-background:new 0 0 542 138;" xml:space="preserve">
<style type="text/css">
	.st0{fill:#FFFFFF;}
</style>
<g>
	<path class="st0" d="M20.9,13.6h503.7c3.5,0,6,2.6,6,6V121c0,3.5-2.6,6-6,6H20.9c-3.5,0-6-2.6-6-6V19.6
		C14.9,16.2,17.4,13.6,20.9,13.6L20.9,13.6z M74.5,76.2v3.9c0,1.1,0.9,2,2,2h4.9c15.4,0,25.6-8.1,25.6-23.9c0-17.7-10.2-24-25.6-24
		h-30c-1.1,0-2,0.9-2,2v3.9c0,1.1,0.9,2,2,2h30.1c10.4,0,16.8,3.7,16.8,16.1c0,10.9-7,16-16.8,16h-4.9
		C75.4,74.3,74.5,75.2,74.5,76.2L74.5,76.2L74.5,76.2z M163.3,74.3v7.9c0,1.1,0.9,2,2,2h8.9c15.9,0,25.6-9.1,25.6-24.8
		c0-17.7-9.8-24.9-25.6-24.9h-28.6c-1.1,0-2,0.9-2,2v7.9c0,1.1,0.9,2,2,2h28.6c6.4,0,11.8,2.8,11.8,13.1c0,10-6,13-11.8,13h-8.9
		C164.1,72.3,163.3,73.2,163.3,74.3L163.3,74.3z M239.2,34.3c-14.9,0-27.6,7.3-27.6,26.9v17.2c0,17.8,12.7,26.8,27.6,26.8h0.5
		c1.1,0,2-0.9,2-2v-7.9c0-1.1-0.9-2-2-2h-0.5c-10.7,0-13.8-7-13.8-15V61.2c0-9.4,2.5-15.1,13.8-15.1h0.5c1.1,0,2-0.9,2-2v-7.9
		c0-1.1-0.9-2-2-2h-0.5V34.3z M250,34.3h-0.5c-1.1,0-2,0.9-2,2v7.9c0,1.1,0.9,2,2,2h0.5c11.3,0,13.8,5.7,13.8,15.1v17.3
		c0,8-3.1,15-13.8,15h-0.5c-1.1,0-2,0.9-2,2v7.9c0,1.1,0.9,2,2,2h0.5c14.9,0,27.6-9.1,27.6-26.8V61.3
		C277.6,41.6,264.9,34.3,250,34.3L250,34.3z M356.6,101.5l-19.5-22c7.7-3.5,12-10.6,12-21.2c0-17.7-9.8-24-25.6-24h-28.6
		c-1.1,0-2,0.9-2,2v7.9c0,1.1,0.9,2,2,2h28.6c6.4,0,11.8,1.8,11.8,12.1c0,10-6,12-11.8,12h-8.9c-1.1,0-2,0.9-2,2v7.9
		c0,1.1,0.9,2,2,2h6.9l20.2,22.6c0.3,0.4,0.8,0.6,1.3,0.6h12.5c1.1,0,2-0.7,2-1.9C357.5,102.5,357.2,102.2,356.6,101.5L356.6,101.5z
		 M363.4,46.2h54.2c1.1,0,2-0.9,2-2v-7.9c0-1.1-0.9-2-2-2h-54.2c-1.1,0-2,0.9-2,2v7.9C361.5,45.3,362.3,46.2,363.4,46.2L363.4,46.2z
		 M456.1,34.3c-14.9,0-27.6,7.3-27.6,26.9v17.3c0,17.8,12.7,26.8,27.6,26.8h0.5c1.1,0,2-0.9,2-2v-7.9c0-1.1-0.9-2-2-2h-0.5
		c-10.7,0-13.8-7-13.8-15V61.2c0-9.4,2.5-15.1,13.8-15.1h0.5c1.1,0,2-0.9,2-2v-7.9c0-1.1-0.9-2-2-2h-0.5V34.3z M467,34.3h-0.5
		c-1.1,0-2,0.9-2,2v7.9c0,1.1,0.9,2,2,2h0.5c11.3,0,13.8,5.7,13.8,15.1v17.3c0,8-3.1,15-13.8,15h-0.5c-1.1,0-2,0.9-2,2v7.9
		c0,1.1,0.9,2,2,2h0.5c14.9,0,27.6-9.1,27.6-26.8V61.2C494.6,41.6,481.9,34.3,467,34.3L467,34.3z M57.8,105.3h4.9c1.1,0,2-0.9,2-2
		V54.1c0-1.1-0.9-2-2-2h-4.9c-1.1,0-2,0.9-2,2v49.3C55.8,104.4,56.7,105.3,57.8,105.3L57.8,105.3z M145.5,105.3h9.9c1.1,0,2-0.9,2-2
		V54.1c0-1.1-0.9-2-2-2h-9.9c-1.1,0-2,0.9-2,2v49.3C143.5,104.4,144.4,105.3,145.5,105.3L145.5,105.3z M294.9,105.3h9.9
		c1.1,0,2-0.9,2-2V54.1c0-1.1-0.9-2-2-2h-9.9c-1.1,0-2,0.9-2,2v49.3C292.9,104.4,293.8,105.3,294.9,105.3L294.9,105.3z M395.5,52.1
		h-9.9c-1.1,0-2,0.9-2,2v49.3c0,1.1,0.9,2,2,2h9.9c1.1,0,2-0.9,2-2V54.1C397.4,53,396.6,52.1,395.5,52.1L395.5,52.1z M112.5,105.7
		c4.3,0,7.8-3.4,7.8-7.8c0-4.3-3.4-7.8-7.8-7.8c-4.3,0-7.8,3.4-7.8,7.8C104.7,102.3,108.1,105.7,112.5,105.7L112.5,105.7z"/>
</g>
</svg>
